<svg width="375" height="812" viewBox="0 0 375 812" fill="none" xmlns="http://www.w3.org/2000/svg">
<path d="M0 94.3188H93.75V1.32101e-05H0V94.3188Z" fill="#FAF089"/>
<path d="M93.75 94.3188H187.5V1.32101e-05H93.75V94.3188Z" fill="#1BD9D5"/>
<path d="M187.5 94.3188H281.25V1.32101e-05H187.5V94.3188Z" fill="#00BCB9"/>
<path d="M281.25 94.3188L375 94.3188V3.83854e-05L281.25 1.32101e-05V94.3188Z" fill="#38A169"/>
<path d="M93.75 188.638H187.5V94.3188H93.75V188.638Z" fill="#FAF089"/>
<path d="M187.5 188.638H281.25V94.3188H187.5V188.638Z" fill="#1BD9D5"/>
<path d="M281.25 188.638H375V94.3188L281.25 94.3188V188.638Z" fill="#FAF089"/>
<path d="M187.5 282.956H281.25V188.638H187.5V282.956Z" fill="#FAF089"/>
<path d="M281.25 282.956H375V188.638H281.25V282.956Z" fill="#1BD9D5"/>
<path d="M281.25 377H375V282.681H281.25V377Z" fill="#FAF089"/>
<path d="M0 356.319H93.75V262H0V356.319Z" fill="#85EEEB"/>
<path d="M93.75 356.319H187.5V262H93.75V356.319Z" fill="#FC8181"/>
<path d="M187.5 356.319H281.25V262H187.5V356.319Z" fill="#00BCB9"/>
<path d="M281.25 356.319L375 356.319V262L281.25 262V356.319Z" fill="#718096"/>
<path d="M93.75 450.638H187.5V356.319H93.75V450.638Z" fill="#85EEEB"/>
<path d="M187.5 450.638H281.25V356.319H187.5V450.638Z" fill="#FC8181"/>
<path d="M281.25 450.638H375V356.319L281.25 356.319V450.638Z" fill="#85EEEB"/>
<path d="M187.5 544.956H281.25V450.638H187.5V544.956Z" fill="#85EEEB"/>
<path d="M281.25 544.956H375V450.638H281.25V544.956Z" fill="#FC8181"/>
<path d="M281.25 639H375V544.681H281.25V639Z" fill="#85EEEB"/>
</svg>
