<svg width="240" height="77" viewBox="0 0 240 77" fill="none" xmlns="http://www.w3.org/2000/svg">
<path d="M233.192 17.08C233.416 16.1467 234.032 15.68 235.04 15.68C236.048 15.68 237.075 16.3147 238.12 17.584C239.203 18.8533 239.744 20.2907 239.744 21.896C239.744 22.8293 239.408 24.304 238.736 26.32C238.064 28.336 237.579 29.7733 237.28 30.632C237.019 31.4907 236.627 32.6667 236.104 34.16C235.581 35.616 235.096 36.9787 234.648 38.248C234.237 39.48 233.659 41.1413 232.912 43.232C232.203 45.3227 231.549 47.264 230.952 49.056C229.795 52.416 228.376 55.0107 226.696 56.84C225.053 58.6693 222.907 59.584 220.256 59.584C217.605 59.584 215.235 58.8747 213.144 57.456C211.053 56.0747 210.008 54.6747 210.008 53.256C210.008 52.3973 210.381 51.4453 211.128 50.4C211.912 49.3547 212.565 48.832 213.088 48.832C213.648 48.832 214.357 49.2613 215.216 50.12C216.112 51.016 217.027 51.8933 217.96 52.752C218.893 53.648 219.715 54.096 220.424 54.096C220.909 54.096 221.301 53.872 221.6 53.424C221.936 52.976 222.197 52.5653 222.384 52.192C222.608 51.856 222.832 51.3707 223.056 50.736C223.28 50.1387 223.485 49.5787 223.672 49.056C223.859 48.5333 224.083 47.8427 224.344 46.984C224.605 46.1253 224.829 45.36 225.016 44.688C225.651 42.672 226.192 40.88 226.64 39.312C225.408 40.9173 224.139 42.2053 222.832 43.176C221.525 44.1093 220.312 44.576 219.192 44.576C218.109 44.576 216.747 43.7547 215.104 42.112C213.499 40.432 212.696 38.6027 212.696 36.624C212.696 34.608 213.125 31.92 213.984 28.56C214.88 25.2 215.981 22.2133 217.288 19.6C218.595 16.9867 219.752 15.68 220.76 15.68C221.917 15.68 223 16.184 224.008 17.192C225.053 18.1627 225.576 19.1147 225.576 20.048C225.576 20.944 225.109 22.4 224.176 24.416C223.28 26.432 222.365 28.6347 221.432 31.024C220.499 33.4133 220.032 35.448 220.032 37.128C220.032 37.352 220.125 37.464 220.312 37.464C220.797 37.464 221.824 36.568 223.392 34.776C224.96 32.9467 226.715 30.3707 228.656 27.048C230.635 23.688 232.147 20.3653 233.192 17.08Z" fill="#156F6D"/>
<path d="M207.565 -1.52588e-05C208.461 -1.52588e-05 209.618 0.821317 211.037 2.46398C212.456 4.10665 213.165 5.67465 213.165 7.16799C213.165 8.66132 212.941 11.3307 212.493 15.176C212.045 18.984 211.578 22.0267 211.093 24.304C207.994 37.8187 205.829 44.576 204.597 44.576C203.776 44.576 202.749 43.9227 201.517 42.616C200.322 41.272 199.725 40.1707 199.725 39.312C199.725 39.2373 200.229 37.296 201.237 33.488C202.245 29.68 203.253 24.7893 204.261 18.816C205.306 12.8053 205.829 7.07465 205.829 1.62398C205.829 0.541317 206.408 -1.52588e-05 207.565 -1.52588e-05Z" fill="#156F6D"/>
<path d="M194.93 -1.52588e-05C195.826 -1.52588e-05 196.983 0.821317 198.402 2.46398C199.821 4.10665 200.53 5.67465 200.53 7.16799C200.53 8.66132 200.306 11.3307 199.858 15.176C199.41 18.984 198.943 22.0267 198.458 24.304C195.359 37.8187 193.194 44.576 191.962 44.576C191.141 44.576 190.114 43.9227 188.882 42.616C187.687 41.272 187.09 40.1707 187.09 39.312C187.09 39.2373 187.594 37.296 188.602 33.488C189.61 29.68 190.618 24.7893 191.626 18.816C192.671 12.8053 193.194 7.07465 193.194 1.62398C193.194 0.541317 193.773 -1.52588e-05 194.93 -1.52588e-05Z" fill="#156F6D"/>
<path d="M184.527 28.672C185.199 29.2693 185.535 29.8107 185.535 30.296C185.535 30.7813 185.311 31.7893 184.863 33.32C184.415 34.8507 184.116 36.0453 183.967 36.904C183.818 37.7253 183.687 38.3787 183.575 38.864C183.5 39.3493 183.444 39.7413 183.407 40.04C183.37 40.3013 183.295 40.6373 183.183 41.048C183.108 41.4587 183.034 41.7947 182.959 42.056C182.922 42.28 182.847 42.56 182.735 42.896C182.66 43.1947 182.567 43.4373 182.455 43.624C182.343 43.7733 182.212 43.9413 182.063 44.128C181.839 44.4267 181.466 44.576 180.943 44.576C180.42 44.576 179.767 44.0533 178.983 43.008C178.236 41.9627 177.676 40.6933 177.303 39.2C173.794 42.784 170.844 44.576 168.455 44.576C166.85 44.576 165.114 43.6987 163.247 41.944C161.38 40.152 160.447 38.3787 160.447 36.624C160.447 34.832 161.25 32.2933 162.855 29.008C164.46 25.7227 166.644 22.68 169.407 19.88C172.207 17.08 174.97 15.68 177.695 15.68C179.263 15.68 181.074 16.5947 183.127 18.424C185.18 20.2533 186.207 21.9333 186.207 23.464C186.207 24.9573 185.647 26.6933 184.527 28.672ZM168.231 37.52C169.724 37.52 171.703 36.512 174.167 34.496C176.668 32.4427 178.218 29.8667 178.815 26.768C178.852 26.32 179.17 26.0587 179.767 25.984C179.655 23.856 179.3 22.792 178.703 22.792C177.21 22.792 175.53 23.7627 173.663 25.704C171.834 27.6453 170.322 29.7173 169.127 31.92C167.97 34.1227 167.391 35.7467 167.391 36.792C167.391 37.0907 167.428 37.296 167.503 37.408C167.615 37.4827 167.858 37.52 168.231 37.52Z" fill="#156F6D"/>
<path d="M144.826 11.48C140.794 11.704 138.591 11.816 138.218 11.816C137.322 11.816 136.426 11.2747 135.53 10.192C134.634 9.07198 134.186 7.91465 134.186 6.71998C134.186 4.89065 139.506 3.97598 150.146 3.97598C155.597 3.97598 159.61 4.53598 162.186 5.65598C164.762 6.77598 166.05 8.13865 166.05 9.74399C166.05 10.2293 165.77 10.696 165.21 11.144C164.65 11.5547 163.941 11.76 163.082 11.76C162.223 11.76 160.655 11.704 158.378 11.592C156.101 11.48 154.029 11.4053 152.162 11.368C152.311 11.816 152.386 12.3386 152.386 12.936C152.386 13.5333 152.162 14.7093 151.714 16.464C151.303 18.2187 150.706 20.664 149.922 23.8C149.138 26.8987 148.279 30.6693 147.346 35.112C146.413 39.5173 145.759 42.1493 145.386 43.008C145.05 43.8293 144.714 44.24 144.378 44.24C143.594 44.24 142.605 43.5307 141.41 42.112C140.253 40.656 139.674 39.48 139.674 38.584C139.674 37.688 140.439 33.992 141.97 27.496C143.501 20.9627 144.453 15.624 144.826 11.48Z" fill="#156F6D"/>
<path d="M112.683 35.4422L112.645 28.5726H113.624L125.143 16.3389H131.88L118.743 30.2665H117.859L112.683 35.4422ZM107.507 45.248V6.70253H113.135V45.248H107.507ZM125.764 45.248L115.412 31.5086L119.289 27.575L132.671 45.248H125.764Z" fill="#156F6D"/>
<path d="M90.9803 45.8314C88.132 45.8314 85.679 45.2229 83.6213 44.0058C81.576 42.7762 79.9951 41.0509 78.8784 38.83C77.7742 36.5966 77.2221 33.9805 77.2221 30.9816C77.2221 28.0205 77.7742 25.4106 78.8784 23.1521C79.9951 20.8936 81.5509 19.1307 83.546 17.8634C85.5535 16.5961 87.8999 15.9625 90.585 15.9625C92.2162 15.9625 93.7972 16.2322 95.3279 16.7718C96.8587 17.3113 98.2326 18.1583 99.4497 19.3126C100.667 20.467 101.627 21.9664 102.329 23.8108C103.032 25.6428 103.383 27.8699 103.383 30.4923V32.4873H80.4029V28.2714H97.8688C97.8688 26.7908 97.5676 25.4796 96.9654 24.3378C96.3631 23.1835 95.5161 22.2738 94.4245 21.6088C93.3455 20.9438 92.0782 20.6113 90.6227 20.6113C89.0417 20.6113 87.6615 21.0002 86.482 21.7782C85.3151 22.5436 84.4117 23.5473 83.7718 24.7895C83.1445 26.0192 82.8308 27.3555 82.8308 28.7984V32.0921C82.8308 34.0244 83.1696 35.6681 83.8471 37.0232C84.5372 38.3783 85.4971 39.4135 86.7267 40.1287C87.9564 40.8313 89.393 41.1826 91.0367 41.1826C92.1033 41.1826 93.0757 41.0321 93.954 40.7309C94.8323 40.4173 95.5914 39.953 96.2313 39.3382C96.8713 38.7234 97.3606 37.9642 97.6994 37.0608L103.026 38.0207C102.599 39.5891 101.834 40.9631 100.73 42.1425C99.6379 43.3094 98.264 44.2191 96.6078 44.8716C94.9641 45.5115 93.0882 45.8314 90.9803 45.8314Z" fill="#156F6D"/>
<path d="M61.9938 45.8314C59.1456 45.8314 56.6926 45.2229 54.6348 44.0058C52.5896 42.7762 51.0086 41.0509 49.8919 38.83C48.7877 36.5966 48.2357 33.9805 48.2357 30.9816C48.2357 28.0205 48.7877 25.4106 49.8919 23.1521C51.0086 20.8936 52.5645 19.1307 54.5595 17.8634C56.5671 16.5961 58.9135 15.9625 61.5986 15.9625C63.2297 15.9625 64.8107 16.2322 66.3415 16.7718C67.8723 17.3113 69.2462 18.1583 70.4633 19.3126C71.6804 20.467 72.6402 21.9664 73.3429 23.8108C74.0456 25.6428 74.3969 27.8699 74.3969 30.4923V32.4873H51.4164V28.2714H68.8823C68.8823 26.7908 68.5812 25.4796 67.9789 24.3378C67.3766 23.1835 66.5297 22.2738 65.4381 21.6088C64.359 20.9438 63.0917 20.6113 61.6362 20.6113C60.0553 20.6113 58.6751 21.0002 57.4956 21.7782C56.3287 22.5436 55.4253 23.5473 54.7854 24.7895C54.158 26.0192 53.8443 27.3555 53.8443 28.7984V32.0921C53.8443 34.0244 54.1831 35.6681 54.8607 37.0232C55.5508 38.3783 56.5106 39.4135 57.7403 40.1287C58.9699 40.8313 60.4066 41.1826 62.0503 41.1826C63.1168 41.1826 64.0892 41.0321 64.9675 40.7309C65.8459 40.4173 66.605 39.953 67.2449 39.3382C67.8848 38.7234 68.3742 37.9642 68.7129 37.0608L74.0393 38.0207C73.6127 39.5891 72.8473 40.9631 71.7431 42.1425C70.6515 43.3094 69.2776 44.2191 67.6213 44.8716C65.9776 45.5115 64.1018 45.8314 61.9938 45.8314Z" fill="#156F6D"/>
<path d="M10.6903 45.248L0 6.70253H6.11683L13.6264 36.5527H13.984L21.7947 6.70253H27.8551L35.6658 36.5715H36.0234L43.5142 6.70253H49.6499L38.9407 45.248H33.0874L24.9755 16.3765H24.6744L16.5625 45.248H10.6903Z" fill="#156F6D"/>
<path d="M201.892 65.062L200.85 65.356C200.747 65.062 200.603 64.7956 200.415 64.557C200.228 64.3184 199.983 64.1287 199.68 63.9881C199.382 63.8475 199.011 63.7772 198.568 63.7772C197.903 63.7772 197.358 63.9348 196.931 64.2502C196.505 64.5655 196.292 64.9725 196.292 65.4711C196.292 65.8929 196.437 66.236 196.727 66.5002C197.021 66.7601 197.473 66.9668 198.082 67.1202L199.565 67.4846C200.387 67.6848 201.003 68.0023 201.412 68.437C201.826 68.8716 202.032 69.4171 202.032 70.0733C202.032 70.6273 201.879 71.1195 201.572 71.5499C201.265 71.9803 200.837 72.3191 200.287 72.5662C199.742 72.8091 199.109 72.9306 198.389 72.9306C197.43 72.9306 196.639 72.7154 196.017 72.285C195.395 71.8503 194.997 71.2239 194.822 70.4057L195.915 70.1373C196.056 70.7211 196.331 71.1621 196.74 71.4604C197.153 71.7587 197.696 71.9079 198.37 71.9079C199.124 71.9079 199.727 71.7395 200.179 71.4029C200.63 71.062 200.856 70.6358 200.856 70.1245C200.856 69.7282 200.724 69.3958 200.46 69.1273C200.196 68.8546 199.795 68.6543 199.258 68.5265L197.654 68.1429C196.801 67.9384 196.171 67.6145 195.762 67.1714C195.353 66.7282 195.148 66.1785 195.148 65.5222C195.148 64.981 195.295 64.5059 195.589 64.0968C195.883 63.6834 196.288 63.3596 196.804 63.1252C197.319 62.8908 197.907 62.7736 198.568 62.7736C199.467 62.7736 200.185 62.9782 200.722 63.3873C201.263 63.7921 201.653 64.3503 201.892 65.062Z" fill="#4A5568"/>
<path d="M193.067 62.9079V63.8986H188.381V62.9079H193.067ZM189.845 60.5556H190.989V70.1628C190.989 70.5719 191.06 70.8937 191.2 71.128C191.341 71.3581 191.524 71.5222 191.75 71.6202C191.976 71.714 192.217 71.7608 192.472 71.7608C192.621 71.7608 192.749 71.7523 192.856 71.7353C192.962 71.714 193.056 71.6927 193.137 71.6714L193.38 72.7005C193.269 72.7431 193.133 72.7814 192.971 72.8155C192.809 72.8539 192.609 72.8731 192.37 72.8731C191.952 72.8731 191.55 72.7814 191.162 72.5982C190.778 72.415 190.463 72.1422 190.216 71.78C189.969 71.4178 189.845 70.9682 189.845 70.4313V60.5556Z" fill="#4A5568"/>
<path d="M185.226 72.726V62.9079H186.371V72.726H185.226ZM185.808 61.2204C185.574 61.2204 185.373 61.1415 185.207 60.9838C185.041 60.8219 184.958 60.628 184.958 60.4022C184.958 60.1763 185.041 59.9846 185.207 59.8269C185.373 59.665 185.574 59.584 185.808 59.584C186.042 59.584 186.243 59.665 186.409 59.8269C186.575 59.9846 186.658 60.1763 186.658 60.4022C186.658 60.628 186.575 60.8219 186.409 60.9838C186.243 61.1415 186.042 61.2204 185.808 61.2204Z" fill="#4A5568"/>
<path d="M174.591 72.726V59.6351H175.735V64.7807H175.837C175.965 64.4867 176.149 64.1841 176.387 63.8731C176.63 63.562 176.948 63.302 177.34 63.0932C177.736 62.8802 178.235 62.7736 178.835 62.7736C179.641 62.7736 180.348 62.9867 180.958 63.4128C181.567 63.8347 182.042 64.427 182.383 65.1898C182.724 65.9483 182.894 66.8326 182.894 67.8425C182.894 68.8567 182.724 69.7452 182.383 70.508C182.046 71.2708 181.573 71.8652 180.964 72.2914C180.359 72.7175 179.656 72.9306 178.855 72.9306C178.258 72.9306 177.759 72.824 177.359 72.611C176.962 72.3979 176.643 72.1358 176.4 71.8248C176.157 71.5094 175.97 71.2026 175.837 70.9043H175.697V72.726H174.591ZM175.716 67.8233C175.716 68.616 175.833 69.3191 176.068 69.9327C176.306 70.5421 176.647 71.0215 177.09 71.3709C177.538 71.7161 178.079 71.8887 178.714 71.8887C179.366 71.8887 179.918 71.7097 180.369 71.3517C180.821 70.9895 181.164 70.5016 181.399 69.888C181.633 69.2743 181.75 68.5861 181.75 67.8233C181.75 67.0691 181.633 66.3894 181.399 65.7843C181.168 65.1792 180.828 64.6998 180.376 64.3461C179.924 63.9881 179.37 63.8091 178.714 63.8091C178.075 63.8091 177.531 63.9817 177.084 64.3269C176.641 64.6678 176.302 65.1408 176.068 65.7459C175.833 66.3468 175.716 67.0392 175.716 67.8233Z" fill="#4A5568"/>
<path d="M167.257 72.9498C166.665 72.9498 166.124 72.8347 165.634 72.6046C165.144 72.3702 164.754 72.0336 164.464 71.5946C164.174 71.1515 164.029 70.6145 164.029 69.9839C164.029 69.4981 164.121 69.089 164.304 68.7566C164.487 68.4242 164.747 68.1515 165.084 67.9384C165.421 67.7253 165.819 67.557 166.279 67.4334C166.739 67.3098 167.247 67.214 167.801 67.1458C168.35 67.0776 168.815 67.0179 169.194 66.9668C169.578 66.9157 169.869 66.8347 170.07 66.7239C170.27 66.6131 170.37 66.4341 170.37 66.187V65.9569C170.37 65.2878 170.17 64.7615 169.769 64.378C169.373 63.9902 168.802 63.7964 168.056 63.7964C167.349 63.7964 166.771 63.9519 166.324 64.263C165.881 64.5741 165.57 64.9405 165.391 65.3624L164.31 64.9725C164.532 64.4356 164.839 64.0073 165.231 63.6877C165.623 63.3638 166.062 63.1316 166.548 62.991C167.033 62.8461 167.526 62.7736 168.024 62.7736C168.399 62.7736 168.789 62.8226 169.194 62.9206C169.603 63.0187 169.982 63.1891 170.332 63.432C170.681 63.6706 170.965 64.0052 171.182 64.4356C171.399 64.8617 171.508 65.4029 171.508 66.0591V72.726H170.37V71.1728H170.3C170.163 71.4625 169.961 71.7438 169.693 72.0165C169.424 72.2892 169.087 72.513 168.683 72.6877C168.278 72.8624 167.803 72.9498 167.257 72.9498ZM167.411 71.9079C168.016 71.9079 168.54 71.7736 168.983 71.5052C169.426 71.2367 169.767 70.8809 170.006 70.4377C170.249 69.9902 170.37 69.4981 170.37 68.9611V67.5421C170.285 67.6231 170.142 67.6955 169.942 67.7594C169.746 67.8233 169.518 67.8809 169.258 67.932C169.002 67.9789 168.747 68.0194 168.491 68.0535C168.235 68.0875 168.005 68.1174 167.801 68.1429C167.247 68.2111 166.774 68.3177 166.382 68.4625C165.989 68.6074 165.689 68.8077 165.48 69.0634C165.271 69.3148 165.167 69.6387 165.167 70.035C165.167 70.6316 165.38 71.0939 165.806 71.4221C166.232 71.7459 166.767 71.9079 167.411 71.9079Z" fill="#4A5568"/>
<path d="M155.339 66.5897V72.726H154.201V59.6351H155.339V64.4483H155.441C155.671 63.9412 156.027 63.5364 156.508 63.2339C156.994 62.9313 157.608 62.78 158.349 62.78C159.014 62.78 159.598 62.9164 160.101 63.1891C160.604 63.4618 160.996 63.8645 161.277 64.3972C161.558 64.9299 161.699 65.5861 161.699 66.366V72.726H160.555V66.4363C160.555 65.6266 160.329 64.9895 159.877 64.525C159.43 64.0563 158.824 63.8219 158.062 63.8219C157.538 63.8219 157.071 63.9327 156.662 64.1543C156.253 64.3759 155.929 64.6955 155.69 65.1131C155.456 65.5265 155.339 66.0187 155.339 66.5897Z" fill="#4A5568"/>
<path d="M140.465 76.4079C140.239 76.4079 140.028 76.3865 139.832 76.3439C139.636 76.3013 139.48 76.2544 139.365 76.2033L139.672 75.1998C140.06 75.3191 140.405 75.3617 140.708 75.3276C141.01 75.2978 141.279 75.1614 141.513 74.9185C141.747 74.6799 141.956 74.3134 142.14 73.8191L142.497 72.8219L138.886 62.9079H140.12L143.034 71.2239H143.124L146.039 62.9079H147.272L143.118 74.2793C142.943 74.7523 142.728 75.1465 142.472 75.4618C142.216 75.7814 141.92 76.0179 141.583 76.1714C141.251 76.329 140.878 76.4079 140.465 76.4079Z" fill="#4A5568"/>
<path d="M136.842 59.6351V72.726H135.704V59.6351H136.842Z" fill="#4A5568"/>
<path d="M127.462 69.0187L127.449 67.5293H127.705L132.307 62.9079H133.746L129.201 67.459L129.099 67.4782L127.462 69.0187ZM126.427 72.726V59.6351H127.565V72.726H126.427ZM132.544 72.726L128.555 67.6827L129.373 66.8965L134.001 72.726H132.544Z" fill="#4A5568"/>
<path d="M120.117 72.9306C119.201 72.9306 118.408 72.7175 117.739 72.2914C117.07 71.861 116.553 71.2665 116.186 70.508C115.824 69.7452 115.643 68.8674 115.643 67.8745C115.643 66.8858 115.824 66.008 116.186 65.241C116.553 64.4696 117.058 63.8667 117.701 63.432C118.349 62.9931 119.097 62.7736 119.945 62.7736C120.477 62.7736 120.991 62.8716 121.485 63.0677C121.979 63.2594 122.423 63.5556 122.815 63.9562C123.211 64.3525 123.524 64.8532 123.754 65.4583C123.984 66.0591 124.099 66.7708 124.099 67.5932V68.1557H116.429V67.1522H122.936C122.936 66.5215 122.808 65.9547 122.553 65.4519C122.301 64.9448 121.95 64.5442 121.498 64.2502C121.05 63.9562 120.533 63.8091 119.945 63.8091C119.322 63.8091 118.775 63.9753 118.302 64.3077C117.829 64.6401 117.458 65.079 117.19 65.6245C116.925 66.1699 116.791 66.7665 116.787 67.4142V68.0151C116.787 68.7949 116.921 69.4767 117.19 70.0606C117.462 70.6401 117.848 71.0897 118.347 71.4093C118.845 71.7289 119.435 71.8887 120.117 71.8887C120.582 71.8887 120.989 71.8162 121.338 71.6714C121.692 71.5265 121.988 71.3326 122.227 71.0897C122.469 70.8425 122.653 70.5719 122.776 70.2779L123.857 70.6294C123.707 71.0428 123.462 71.4242 123.121 71.7736C122.785 72.1231 122.363 72.4043 121.856 72.6174C121.353 72.8262 120.773 72.9306 120.117 72.9306Z" fill="#4A5568"/>
<path d="M109.838 72.9306C108.922 72.9306 108.129 72.7175 107.46 72.2914C106.791 71.861 106.274 71.2665 105.907 70.508C105.545 69.7452 105.364 68.8674 105.364 67.8745C105.364 66.8858 105.545 66.008 105.907 65.241C106.274 64.4696 106.779 63.8667 107.422 63.432C108.07 62.9931 108.818 62.7736 109.666 62.7736C110.198 62.7736 110.712 62.8716 111.206 63.0677C111.7 63.2594 112.144 63.5556 112.536 63.9562C112.932 64.3525 113.245 64.8532 113.475 65.4583C113.705 66.0591 113.82 66.7708 113.82 67.5932V68.1557H106.15V67.1522H112.657C112.657 66.5215 112.529 65.9547 112.274 65.4519C112.022 64.9448 111.671 64.5442 111.219 64.2502C110.771 63.9562 110.254 63.8091 109.666 63.8091C109.043 63.8091 108.496 63.9753 108.023 64.3077C107.55 64.6401 107.179 65.079 106.911 65.6245C106.646 66.1699 106.512 66.7665 106.508 67.4142V68.0151C106.508 68.7949 106.642 69.4767 106.911 70.0606C107.183 70.6401 107.569 71.0897 108.068 71.4093C108.566 71.7289 109.156 71.8887 109.838 71.8887C110.303 71.8887 110.71 71.8162 111.059 71.6714C111.413 71.5265 111.709 71.3326 111.948 71.0897C112.19 70.8425 112.374 70.5719 112.497 70.2779L113.578 70.6294C113.428 71.0428 113.183 71.4242 112.842 71.7736C112.506 72.1231 112.084 72.4043 111.577 72.6174C111.074 72.8262 110.494 72.9306 109.838 72.9306Z" fill="#4A5568"/>
<path d="M94.0781 72.726L91.1122 62.9079H92.3139L94.6406 71.0066H94.7237L97.044 62.9079H98.2521L100.553 70.9874H100.643L102.969 62.9079H104.171L101.205 72.726H100.029L97.7023 64.6785H97.5809L95.2542 72.726H94.0781Z" fill="#4A5568"/>
<path d="M80.7798 72.726V62.9079H81.8857V64.4164H81.9688C82.1648 63.9221 82.5057 63.5236 82.9915 63.2211C83.4815 62.9142 84.0355 62.7608 84.6534 62.7608C84.7472 62.7608 84.8516 62.763 84.9666 62.7672C85.0817 62.7715 85.1776 62.7758 85.2543 62.78V63.937C85.2031 63.9285 85.1137 63.9157 84.9858 63.8986C84.858 63.8816 84.7195 63.8731 84.5703 63.8731C84.059 63.8731 83.603 63.9817 83.2024 64.199C82.8061 64.4121 82.4929 64.7083 82.2628 65.0875C82.0327 65.4668 81.9176 65.8993 81.9176 66.3851V72.726H80.7798Z" fill="#4A5568"/>
<path d="M76.8098 68.9739V62.9079H77.9476V72.726H76.8098V71.0961H76.7203C76.4902 71.5989 76.1259 72.0187 75.6273 72.3553C75.1287 72.6877 74.5193 72.8539 73.7991 72.8539C73.1727 72.8539 72.6166 72.7175 72.1308 72.4448C71.645 72.1678 71.2636 71.763 70.9866 71.2303C70.7097 70.6976 70.5712 70.0435 70.5712 69.2679V62.9079H71.709V69.1976C71.709 69.9647 71.9348 70.5826 72.3865 71.0513C72.8382 71.5158 73.4178 71.7481 74.1251 71.7481C74.5683 71.7481 74.9945 71.6415 75.4036 71.4285C75.8126 71.2154 76.1493 70.9043 76.4135 70.4952C76.6777 70.0819 76.8098 69.5748 76.8098 68.9739Z" fill="#4A5568"/>
<path d="M63.9325 72.9306C63.0845 72.9306 62.3345 72.7154 61.6825 72.285C61.0347 71.8546 60.5276 71.2601 60.1612 70.5016C59.7947 69.7388 59.6115 68.8589 59.6115 67.8617C59.6115 66.856 59.7947 65.9718 60.1612 65.209C60.5276 64.4419 61.0347 63.8454 61.6825 63.4192C62.3345 62.9888 63.0845 62.7736 63.9325 62.7736C64.7805 62.7736 65.5284 62.9888 66.1761 63.4192C66.8238 63.8496 67.3309 64.4462 67.6974 65.209C68.0681 65.9718 68.2535 66.856 68.2535 67.8617C68.2535 68.8589 68.0703 69.7388 67.7038 70.5016C67.3373 71.2601 66.8281 71.8546 66.1761 72.285C65.5284 72.7154 64.7805 72.9306 63.9325 72.9306ZM63.9325 71.8887C64.6143 71.8887 65.1917 71.7054 65.6647 71.339C66.1377 70.9725 66.4957 70.4846 66.7386 69.8752C66.9857 69.2658 67.1093 68.5946 67.1093 67.8617C67.1093 67.1287 66.9857 66.4554 66.7386 65.8418C66.4957 65.2282 66.1377 64.736 65.6647 64.3652C65.1917 63.9945 64.6143 63.8091 63.9325 63.8091C63.2549 63.8091 62.6775 63.9945 62.2002 64.3652C61.7272 64.736 61.3671 65.2282 61.12 65.8418C60.8771 66.4554 60.7556 67.1287 60.7556 67.8617C60.7556 68.5946 60.8771 69.2658 61.12 69.8752C61.3671 70.4846 61.7272 70.9725 62.2002 71.339C62.6732 71.7054 63.2507 71.8887 63.9325 71.8887Z" fill="#4A5568"/>
<path d="M51.6144 76.4079C51.3886 76.4079 51.1776 76.3865 50.9816 76.3439C50.7856 76.3013 50.63 76.2544 50.515 76.2033L50.8218 75.1998C51.2096 75.3191 51.5548 75.3617 51.8573 75.3276C52.1599 75.2978 52.4283 75.1614 52.6627 74.9185C52.8971 74.6799 53.1059 74.3134 53.2891 73.8191L53.6471 72.8219L50.0356 62.9079H51.2692L54.184 71.2239H54.2735L57.1883 62.9079H58.4219L54.2671 74.2793C54.0924 74.7523 53.8772 75.1465 53.6215 75.4618C53.3658 75.7814 53.0697 76.0179 52.733 76.1714C52.4006 76.329 52.0278 76.4079 51.6144 76.4079Z" fill="#4A5568"/>
<path d="M37.6978 69.0187L37.685 67.5293H37.9407L42.5429 62.9079H43.9812L39.4364 67.459L39.3341 67.4782L37.6978 69.0187ZM36.6623 72.726V59.6351H37.8V72.726H36.6623ZM42.7794 72.726L38.7908 67.6827L39.609 66.8965L44.2368 72.726H42.7794Z" fill="#4A5568"/>
<path d="M30.658 72.9306C29.7801 72.9306 29.0152 72.7111 28.3632 72.2722C27.7155 71.8333 27.2127 71.2324 26.8547 70.4696C26.4968 69.7069 26.3178 68.8375 26.3178 67.8617C26.3178 66.8773 26.4989 66.0016 26.8611 65.2346C27.2276 64.4675 27.7347 63.8667 28.3824 63.432C29.0301 62.9931 29.7823 62.7736 30.6388 62.7736C31.2951 62.7736 31.8895 62.9015 32.4222 63.1571C32.9549 63.4086 33.3938 63.7644 33.7389 64.2246C34.0884 64.6806 34.3078 65.2133 34.3973 65.8226H33.2468C33.1274 65.2687 32.8398 64.7956 32.3838 64.4036C31.9321 64.0073 31.3568 63.8091 30.658 63.8091C30.0316 63.8091 29.4776 63.9796 28.996 64.3205C28.5145 64.6571 28.1374 65.128 27.8647 65.7331C27.5962 66.334 27.462 67.0307 27.462 67.8233C27.462 68.6202 27.5941 69.3255 27.8583 69.9391C28.1225 70.5485 28.4932 71.0258 28.9705 71.3709C29.452 71.7161 30.0145 71.8887 30.658 71.8887C31.0926 71.8887 31.4889 71.8077 31.8469 71.6458C32.2091 71.4796 32.5117 71.2452 32.7546 70.9427C33.0017 70.6401 33.1679 70.28 33.2531 69.8624H34.4037C34.3185 70.4547 34.1076 70.9831 33.7709 71.4476C33.4385 71.9079 33.006 72.2701 32.4733 72.5343C31.9449 72.7985 31.3398 72.9306 30.658 72.9306Z" fill="#4A5568"/>
<path d="M19.7254 72.9498C19.1331 72.9498 18.5919 72.8347 18.1018 72.6046C17.6118 72.3702 17.2218 72.0336 16.9321 71.5946C16.6423 71.1515 16.4974 70.6145 16.4974 69.9839C16.4974 69.4981 16.589 69.089 16.7723 68.7566C16.9555 68.4242 17.2154 68.1515 17.5521 67.9384C17.8887 67.7253 18.2872 67.557 18.7474 67.4334C19.2076 67.3098 19.7147 67.214 20.2687 67.1458C20.8184 67.0776 21.2829 67.0179 21.6622 66.9668C22.0457 66.9157 22.3376 66.8347 22.5379 66.7239C22.7382 66.6131 22.8383 66.4341 22.8383 66.187V65.9569C22.8383 65.2878 22.638 64.7615 22.2375 64.378C21.8412 63.9902 21.2701 63.7964 20.5244 63.7964C19.817 63.7964 19.2396 63.9519 18.7922 64.263C18.349 64.5741 18.0379 64.9405 17.8589 65.3624L16.7787 64.9725C17.0002 64.4356 17.3071 64.0073 17.6991 63.6877C18.0912 63.3638 18.5301 63.1316 19.0159 62.991C19.5017 62.8461 19.9939 62.7736 20.4924 62.7736C20.8674 62.7736 21.2574 62.8226 21.6622 62.9206C22.0713 63.0187 22.4505 63.1891 22.8 63.432C23.1494 63.6706 23.4328 64.0052 23.6501 64.4356C23.8674 64.8617 23.9761 65.4029 23.9761 66.0591V72.726H22.8383V71.1728H22.768C22.6316 71.4625 22.4292 71.7438 22.1608 72.0165C21.8923 72.2892 21.5556 72.513 21.1508 72.6877C20.746 72.8624 20.2708 72.9498 19.7254 72.9498ZM19.8788 71.9079C20.4839 71.9079 21.0081 71.7736 21.4512 71.5052C21.8944 71.2367 22.2353 70.8809 22.474 70.4377C22.7169 69.9902 22.8383 69.4981 22.8383 68.9611V67.5421C22.7531 67.6231 22.6103 67.6955 22.41 67.7594C22.214 67.8233 21.986 67.8809 21.7261 67.932C21.4704 67.9789 21.2147 68.0194 20.9591 68.0535C20.7034 68.0875 20.4733 68.1174 20.2687 68.1429C19.7147 68.2111 19.2417 68.3177 18.8497 68.4625C18.4576 68.6074 18.1572 68.8077 17.9484 69.0634C17.7396 69.3148 17.6352 69.6387 17.6352 70.035C17.6352 70.6316 17.8483 71.0939 18.2744 71.4221C18.7005 71.7459 19.2353 71.9079 19.8788 71.9079Z" fill="#4A5568"/>
<path d="M10.7472 72.726V62.9079H11.853V64.4164H11.9361C12.1321 63.9221 12.473 63.5236 12.9588 63.2211C13.4489 62.9142 14.0029 62.7608 14.6208 62.7608C14.7145 62.7608 14.8189 62.763 14.934 62.7672C15.049 62.7715 15.1449 62.7758 15.2216 62.78V63.937C15.1705 63.9285 15.081 63.9157 14.9532 63.8986C14.8253 63.8816 14.6868 63.8731 14.5377 63.8731C14.0263 63.8731 13.5703 63.9817 13.1698 64.199C12.7735 64.4121 12.4603 64.7083 12.2301 65.0875C12 65.4668 11.885 65.8993 11.885 66.3851V72.726H10.7472Z" fill="#4A5568"/>
<path d="M0 60.709V59.6351H9.49219V60.709H5.34375V72.726H4.14844V60.709H0Z" fill="#4A5568"/>
</svg>
